{"title":"No Other Option XXX **[NEW]** 01 September 2014","uid":10944766,"size":1511097658,"categoryP":"porn","categoryS":"movies","magnet":"?xt=urn:btih:f15f3e08042d67676c2af7ef992475318d9f200f&amp;dn=No+Other+Option+XXX+%2A%2A%5BNEW%5D%2A%2A+01+September+2014&amp;tr=udp%3A%2F%2Ftracker.openbittorrent.com%3A80&amp;tr=udp%3A%2F%2Fopen.demonii.com%3A1337&amp;tr=udp%3A%2F%2Ftracker.coppersurfer.tk%3A6969&amp;tr=udp%3A%2F%2Fexodus.desync.com%3A6969","seeders":0,"leechers":0,"uploader":"iH2OSO4","files":-1,"time":1409590695,"description":"No Other Option XXX **[NEW]** 01 September 2014\n\nLife is full of options, but sometimes for these girls their only choice is the one they fear the most! Now faced with a compromising situation, these girls realize that cheating is their only way out! They now have... No Other Option!\n\nSOURCE :  &lt;a href=&quot; http://nuscotower.com/i/noo5454g.html&quot; rel=&quot;nofollow&quot; target=&quot;_NEW&quot;&gt; http://nuscotower.com/i/noo5454g.html&lt;/a&gt;\n\nGeneral\nNo.Other.Option.XXX.2014.DVDRiP-eUDOXiU.mp4\nFormat                           : MPEG-4\nFormat profile                   : Base Media\nCodec ID                         : isom\nFile size                        : 1.41 GiB\nDuration                         : 2h 1mn\nOverall bit rate                 : 1 660 Kbps\nEncoded date                     : UTC 2014-09-01 01:56:10\nTagged date                      : UTC 2014-09-01 01:56:10\n\nVideo\nID                               : 1\nFormat                           : MPEG-4 Visual\nFormat profile                   : Simple@L1\nFormat settings, BVOP            : No\nFormat settings, QPel            : No\nFormat settings, GMC             : No warppoints\nFormat settings, Matrix          : Default (H.263)\nCodec ID                         : 20\nDuration                         : 2h 1mn\nBit rate mode                    : Variable\nBit rate                         : 1 532 Kbps\nMaximum bit rate                 : 4 410 Kbps\nWidth                            : 856 pixels\nHeight                           : 480 pixels\nDisplay aspect ratio             : 16:9\nFrame rate mode                  : Constant\nFrame rate                       : 29.970 fps\nColor space                      : YUV\nChroma subsampling               : 4:2:0\nBit depth                        : 8 bits\nScan type                        : Progressive\nCompression mode                 : Lossy\nBits/(Pixel*Frame)               : 0.124\nStream size                      : 1.30 GiB (92%)\nWriting library                  : Lavc53.8.0\nEncoded date                     : UTC 2014-09-01 01:56:10\nTagged date                      : UTC 2014-09-01 01:58:36\n\nAudio\nID                               : 2\nFormat                           : AAC\nFormat/Info                      : Advanced Audio Codec\nFormat profile                   : LC\nCodec ID                         : 40\nDuration                         : 2h 1mn\nBit rate mode                    : Variable\nBit rate                         : 125 Kbps\nMaximum bit rate                 : 189 Kbps\nChannel(s)                       : 2 channels\nChannel positions                : Front: L R\nSampling rate                    : 44.1 KHz\nCompression mode                 : Lossy\nStream size                      : 109 MiB (8%)\nEncoded date                     : UTC 2014-09-01 01:57:55\nTagged date                      : UTC 2014-09-01 01:58:36\n","torrent":{"xt":"urn:btih:f15f3e08042d67676c2af7ef992475318d9f200f","amp;dn":"No+Other+Option+XXX+%2A%2A%5BNEW%5D%2A%2A+01+September+2014","amp;tr":["udp%3A%2F%2Ftracker.openbittorrent.com%3A80","udp%3A%2F%2Fopen.demonii.com%3A1337","udp%3A%2F%2Ftracker.coppersurfer.tk%3A6969","udp%3A%2F%2Fexodus.desync.com%3A6969"],"infoHash":"f15f3e08042d67676c2af7ef992475318d9f200f","infoHashBuffer":{"type":"Buffer","data":[241,95,62,8,4,45,103,103,108,42,247,239,153,36,117,49,141,159,32,15]},"announce":[],"urlList":[]}}